<svg width="21" height="25" viewBox="0 0 21 25" fill="none" xmlns="http://www.w3.org/2000/svg">
<path d="M16.8641 12.6884C16.8525 10.7204 17.7442 9.23714 19.5449 8.14346C18.5378 6.70061 17.0141 5.90704 15.0057 5.7541C13.104 5.60404 11.0234 6.86221 10.2616 6.86221C9.45646 6.86221 7.61538 5.80604 6.16675 5.80604C3.17716 5.85221 0 8.18963 0 12.9453C0 14.3506 0.256828 15.8021 0.770483 17.2969C1.45728 19.265 3.93322 24.087 6.51592 24.0091C7.86643 23.9773 8.8216 23.051 10.579 23.051C12.2844 23.051 13.1675 24.0091 14.6738 24.0091C17.2796 23.9716 19.5189 19.5882 20.1711 17.6143C16.6765 15.9666 16.8641 12.7894 16.8641 12.6884ZM13.8312 3.88704C15.2942 2.14985 15.1615 0.568484 15.1182 0C13.8254 0.0750283 12.3306 0.88014 11.4793 1.86994C10.5415 2.93188 9.99031 4.24487 10.1086 5.72524C11.5053 5.83201 12.7808 5.11347 13.8312 3.88704Z" fill="#8065FF"/>
</svg>
