<svg width="81" height="80" viewBox="0 0 81 80" fill="none" xmlns="http://www.w3.org/2000/svg">
<path d="M40.0006 2.66663L2.66728 34.6666H5.33395V78.6666H74.6673V34.6666H77.3339L40.0006 2.66663Z" fill="url(#paint0_radial)"/>
<path opacity="0.2" d="M40.0006 5.29996L72.9873 33.5733C72.7873 33.8933 72.6673 34.2666 72.6673 34.6666V76.6666H7.33395V34.6666C7.33395 34.2666 7.21395 33.8933 7.01395 33.5799L40.0006 5.29996ZM40.0006 2.66663L2.66728 34.6666H5.33395V78.6666H74.6673V34.6666H77.3339L40.0006 2.66663Z" fill="#424242"/>
<path d="M80.0006 80H10.6673V74.6666H77.3339C78.8072 74.6666 80.0006 75.86 80.0006 77.3333V80Z" fill="#689F38"/>
<path opacity="0.2" d="M77.3339 76.6666C77.7006 76.6666 78.0006 76.9666 78.0006 77.3333V78H12.6673V76.6666H77.3339ZM77.3339 74.6666H10.6673V80H80.0006V77.3333C80.0006 75.86 78.8072 74.6666 77.3339 74.6666Z" fill="#424242"/>
<path opacity="0.2" d="M46.0006 17.3333C46.7339 17.3333 47.3339 17.9333 47.3339 18.6667V30.6667C47.3339 31.4 46.7339 32 46.0006 32H34.0006C33.2673 32 32.6673 31.4 32.6673 30.6667V18.6667C32.6673 17.9333 33.2673 17.3333 34.0006 17.3333H46.0006ZM46.0006 16H34.0006C32.5273 16 31.3339 17.1933 31.3339 18.6667V30.6667C31.3339 32.14 32.5273 33.3333 34.0006 33.3333H46.0006C47.4739 33.3333 48.6673 32.14 48.6673 30.6667V18.6667C48.6673 17.1933 47.4739 16 46.0006 16Z" fill="#424242"/>
<path opacity="0.2" d="M62.6673 40C63.4006 40 64.0006 40.6 64.0006 41.3333V60C64.0006 60.7333 63.4006 61.3333 62.6673 61.3333H50.6673C49.9339 61.3333 49.3339 60.7333 49.3339 60V41.3333C49.3339 40.6 49.9339 40 50.6673 40H62.6673ZM62.6673 38.6666H50.6673C49.1939 38.6666 48.0006 39.86 48.0006 41.3333V60C48.0006 61.4733 49.1939 62.6666 50.6673 62.6666H62.6673C64.1406 62.6666 65.3339 61.4733 65.3339 60V41.3333C65.3339 39.86 64.1406 38.6666 62.6673 38.6666Z" fill="#424242"/>
<path d="M40.0006 72H16.0006V38.6667C16.0006 37.9334 16.6006 37.3334 17.3339 37.3334H38.6673C39.4006 37.3334 40.0006 37.9334 40.0006 38.6667V72Z" fill="url(#paint1_radial)"/>
<path d="M37.3339 70.3799H18.6673C18.3006 70.3799 18.0006 70.0799 18.0006 69.7132V39.6199C18.0006 39.2532 18.3006 38.9532 18.6673 38.9532H37.3339C37.7006 38.9532 38.0006 39.2532 38.0006 39.6199V69.7132C38.0006 70.0799 37.7006 70.3799 37.3339 70.3799Z" fill="url(#paint2_radial)"/>
<path d="M33.6673 18.3334H46.3339V31H33.6673V18.3334Z" fill="#4FC3F7"/>
<path d="M32.6673 18.6667V30.6667C32.6673 31.4 33.2673 32 34.0006 32H46.0006C46.7339 32 47.3339 31.4 47.3339 30.6667V18.6667C47.3339 17.9334 46.7339 17.3334 46.0006 17.3334H34.0006C33.2673 17.3334 32.6673 17.9334 32.6673 18.6667ZM46.0006 24H40.6673V18.6667H46.0006V24ZM39.3339 18.6667V24H34.0006V18.6667H39.3339ZM34.0006 25.3334H39.3339V30.6667H34.0006V25.3334ZM40.6673 30.6667V25.3334H46.0006V30.6667H40.6673Z" fill="#EEEEEE"/>
<path d="M50.0206 41H63.3139V60.3333H50.0206V41Z" fill="#4FC3F7"/>
<path d="M35.3339 52H20.6673C20.3006 52 20.0006 51.7 20.0006 51.3334V42C20.0006 41.6334 20.3006 41.3334 20.6673 41.3334H35.3339C35.7006 41.3334 36.0006 41.6334 36.0006 42V51.3334C36.0006 51.7 35.7006 52 35.3339 52Z" fill="url(#paint3_radial)"/>
<path d="M35.3339 68.0001H20.6673C20.3006 68.0001 20.0006 67.7001 20.0006 67.3334V55.3334C20.0006 54.9667 20.3006 54.6667 20.6673 54.6667H35.3339C35.7006 54.6667 36.0006 54.9667 36.0006 55.3334V67.3334C36.0006 67.7001 35.7006 68.0001 35.3339 68.0001Z" fill="url(#paint4_radial)"/>
<path d="M42.6806 74.2132H13.3473V71.7732C13.3473 71.5561 13.3901 71.3411 13.4731 71.1405C13.5562 70.9399 13.678 70.7576 13.8315 70.6041C13.9851 70.4506 14.1673 70.3288 14.3679 70.2457C14.5685 70.1626 14.7835 70.1199 15.0006 70.1199H41.034C41.4724 70.1199 41.893 70.2941 42.203 70.6041C42.5131 70.9142 42.6873 71.3347 42.6873 71.7732V74.2132H42.6806Z" fill="url(#paint5_linear)"/>
<path opacity="0.3" d="M41.034 70.7865C41.574 70.7865 42.0206 71.2265 42.0206 71.7732V73.5465H14.0206V71.7732C14.0206 71.2332 14.4606 70.7865 15.0073 70.7865H41.034ZM41.034 70.1199H15.0006C14.5621 70.1199 14.1416 70.2941 13.8315 70.6041C13.5215 70.9142 13.3473 71.3347 13.3473 71.7732V74.2132H42.6806V71.7732C42.6806 70.8599 41.9406 70.1199 41.034 70.1199Z" fill="#263238"/>
<path d="M45.3473 78.0133H10.6806V75.2133C10.6806 74.2533 11.4606 73.4733 12.4206 73.4733H43.6073C44.5673 73.4733 45.3473 74.2533 45.3473 75.2133V78.0133Z" fill="url(#paint6_linear)"/>
<path opacity="0.3" d="M43.6073 74.1399C44.2006 74.1399 44.6806 74.6199 44.6806 75.2133V77.3466H11.3473V75.2133C11.3473 74.6199 11.8273 74.1399 12.4206 74.1399H43.6073ZM43.6073 73.4733H12.4206C11.4606 73.4733 10.6806 74.2533 10.6806 75.2133V78.0133H45.3473V75.2133C45.3473 74.2533 44.5739 73.4733 43.6073 73.4733Z" fill="#263238"/>
<path opacity="0.2" d="M27.0225 71.7794C27.0845 71.6338 26.9014 71.4163 26.6135 71.2937C26.3255 71.171 26.0418 71.1897 25.9798 71.3354C25.9178 71.481 26.1009 71.6985 26.3888 71.8212C26.6768 71.9438 26.9605 71.9251 27.0225 71.7794Z" fill="#424242"/>
<path opacity="0.2" d="M39.5898 73.1012C39.678 72.9926 39.5873 72.7729 39.3872 72.6104C39.1871 72.4479 38.9534 72.4043 38.8652 72.5129C38.7771 72.6215 38.8678 72.8413 39.0679 73.0037C39.2679 73.1662 39.5016 73.2098 39.5898 73.1012Z" fill="#424242"/>
<path opacity="0.08" d="M28.2006 72.8733C28.5799 72.8733 28.8873 72.7241 28.8873 72.54C28.8873 72.3559 28.5799 72.2067 28.2006 72.2067C27.8214 72.2067 27.514 72.3559 27.514 72.54C27.514 72.7241 27.8214 72.8733 28.2006 72.8733Z" fill="#424242"/>
<path opacity="0.08" d="M34.1206 72.8267C34.4999 72.8267 34.8073 72.6775 34.8073 72.4934C34.8073 72.3093 34.4999 72.16 34.1206 72.16C33.7414 72.16 33.434 72.3093 33.434 72.4934C33.434 72.6775 33.7414 72.8267 34.1206 72.8267Z" fill="#424242"/>
<path opacity="0.08" d="M32.7006 71.9333C32.962 71.9333 33.174 71.805 33.174 71.6467C33.174 71.4883 32.962 71.36 32.7006 71.36C32.4392 71.36 32.2273 71.4883 32.2273 71.6467C32.2273 71.805 32.4392 71.9333 32.7006 71.9333Z" fill="#424242"/>
<path opacity="0.08" d="M40.4006 72.1733C40.7762 72.1733 41.0806 71.9883 41.0806 71.76C41.0806 71.5317 40.7762 71.3467 40.4006 71.3467C40.0251 71.3467 39.7206 71.5317 39.7206 71.76C39.7206 71.9883 40.0251 72.1733 40.4006 72.1733Z" fill="#424242"/>
<path opacity="0.08" d="M24.094 71.7667C24.3554 71.7667 24.5673 71.6652 24.5673 71.54C24.5673 71.4148 24.3554 71.3134 24.094 71.3134C23.8326 71.3134 23.6206 71.4148 23.6206 71.54C23.6206 71.6652 23.8326 71.7667 24.094 71.7667Z" fill="#424242"/>
<path opacity="0.08" d="M37.7079 72.337C38.1302 72.2733 38.4477 72.0565 38.4169 71.8526C38.3862 71.6487 38.0189 71.535 37.5966 71.5986C37.1743 71.6623 36.8568 71.8791 36.8875 72.083C36.9183 72.2869 37.2855 72.4006 37.7079 72.337Z" fill="#424242"/>
<path opacity="0.2" d="M25.2608 72.8203C25.6623 72.726 25.9495 72.4868 25.9023 72.2861C25.8552 72.0854 25.4915 71.9991 25.0901 72.0934C24.6886 72.1877 24.4014 72.4269 24.4486 72.6276C24.4957 72.8283 24.8594 72.9146 25.2608 72.8203Z" fill="#424242"/>
<path opacity="0.2" d="M35.3406 71.8867C35.8635 71.8867 36.2873 71.7315 36.2873 71.54C36.2873 71.3486 35.8635 71.1934 35.3406 71.1934C34.8178 71.1934 34.394 71.3486 34.394 71.54C34.394 71.7315 34.8178 71.8867 35.3406 71.8867Z" fill="#424242"/>
<path opacity="0.2" d="M29.8153 71.5807C30.0797 71.4065 30.2316 71.1705 30.1546 71.0537C30.0776 70.9368 29.8009 70.9834 29.5365 71.1576C29.2721 71.3319 29.1202 71.5678 29.1972 71.6847C29.2742 71.8015 29.5509 71.7549 29.8153 71.5807Z" fill="#424242"/>
<path opacity="0.2" d="M32.2875 72.8501C32.3771 72.6563 32.0487 72.3139 31.554 72.0853C31.0593 71.8568 30.5857 71.8287 30.4961 72.0225C30.4066 72.2164 30.735 72.5588 31.2297 72.7873C31.7243 73.0159 32.198 73.044 32.2875 72.8501Z" fill="#424242"/>
<path opacity="0.2" d="M40.5514 75.5102C40.8732 75.3932 41.0902 75.1777 41.0361 75.0289C40.982 74.8801 40.6773 74.8544 40.3555 74.9714C40.0337 75.0885 39.8167 75.304 39.8708 75.4528C39.9249 75.6015 40.2296 75.6273 40.5514 75.5102Z" fill="#424242"/>
<path opacity="0.2" d="M26.5658 76.7009C26.7939 76.5453 26.9132 76.323 26.8323 76.2044C26.7514 76.0857 26.5009 76.1157 26.2728 76.2713C26.0446 76.427 25.9253 76.6493 26.0062 76.7679C26.0871 76.8865 26.3377 76.8565 26.5658 76.7009Z" fill="#424242"/>
<path opacity="0.08" d="M38.5873 76.5533C39.007 76.5533 39.3473 76.404 39.3473 76.2199C39.3473 76.0358 39.007 75.8866 38.5873 75.8866C38.1676 75.8866 37.8273 76.0358 37.8273 76.2199C37.8273 76.404 38.1676 76.5533 38.5873 76.5533Z" fill="#424242"/>
<path opacity="0.08" d="M32.0539 76.5132C32.4737 76.5132 32.8139 76.364 32.8139 76.1799C32.8139 75.9958 32.4737 75.8466 32.0539 75.8466C31.6342 75.8466 31.2939 75.9958 31.2939 76.1799C31.2939 76.364 31.6342 76.5132 32.0539 76.5132Z" fill="#424242"/>
<path opacity="0.08" d="M33.6206 75.62C33.9078 75.62 34.1406 75.4916 34.1406 75.3333C34.1406 75.175 33.9078 75.0466 33.6206 75.0466C33.3334 75.0466 33.1006 75.175 33.1006 75.3333C33.1006 75.4916 33.3334 75.62 33.6206 75.62Z" fill="#424242"/>
<path opacity="0.08" d="M25.134 75.8599C25.5463 75.8599 25.8806 75.6748 25.8806 75.4465C25.8806 75.2183 25.5463 75.0332 25.134 75.0332C24.7216 75.0332 24.3873 75.2183 24.3873 75.4465C24.3873 75.6748 24.7216 75.8599 25.134 75.8599Z" fill="#424242"/>
<path opacity="0.08" d="M43.114 75.4532C43.4012 75.4532 43.634 75.3517 43.634 75.2265C43.634 75.1014 43.4012 74.9999 43.114 74.9999C42.8268 74.9999 42.594 75.1014 42.594 75.2265C42.594 75.3517 42.8268 75.4532 43.114 75.4532Z" fill="#424242"/>
<path opacity="0.08" d="M28.996 75.761C29.0224 75.5565 28.668 75.3421 28.2043 75.282C27.7405 75.222 27.3431 75.3391 27.3167 75.5436C27.2902 75.7481 27.6447 75.9625 28.1084 76.0225C28.5721 76.0826 28.9695 75.9655 28.996 75.761Z" fill="#424242"/>
<path opacity="0.2" d="M42.7319 76.3074C42.7725 76.1052 42.4455 75.8691 42.0014 75.7799C41.5574 75.6907 41.1646 75.7823 41.124 75.9844C41.0834 76.1866 41.4104 76.4228 41.8544 76.5119C42.2984 76.6011 42.6913 76.5095 42.7319 76.3074Z" fill="#424242"/>
<path opacity="0.2" d="M30.7073 75.5732C31.2817 75.5732 31.7473 75.418 31.7473 75.2265C31.7473 75.0351 31.2817 74.8799 30.7073 74.8799C30.1329 74.8799 29.6673 75.0351 29.6673 75.2265C29.6673 75.418 30.1329 75.5732 30.7073 75.5732Z" fill="#424242"/>
<path opacity="0.2" d="M37.4989 75.3663C37.5702 75.2417 37.3895 75.0043 37.0955 74.8362C36.8014 74.6681 36.5052 74.6329 36.434 74.7576C36.3627 74.8822 36.5433 75.1196 36.8374 75.2877C37.1315 75.4558 37.4277 75.491 37.4989 75.3663Z" fill="#424242"/>
<path opacity="0.2" d="M35.2178 76.4757C35.7637 76.2544 36.1401 75.9117 36.0585 75.7104C35.9769 75.5091 35.4682 75.5253 34.9222 75.7466C34.3763 75.9679 33.9999 76.3105 34.0815 76.5119C34.1631 76.7132 34.6718 76.697 35.2178 76.4757Z" fill="#424242"/>
<path d="M50.6673 40C49.9339 40 49.3339 40.6 49.3339 41.3333V60C49.3339 60.7333 49.9339 61.3333 50.6673 61.3333H62.6673C63.4006 61.3333 64.0006 60.7333 64.0006 60V41.3333C64.0006 40.6 63.4006 40 62.6673 40H50.6673ZM57.3339 41.3333H62.6673V46.6667H57.3339V41.3333ZM50.6673 41.3333H56.0006V46.6667H50.6673V41.3333ZM50.6673 48H56.0006V53.3333H50.6673V48ZM56.0006 60H50.6673V54.6667H56.0006V60ZM62.6673 60H57.3339V54.6667H62.6673V60ZM57.3339 53.3333V48H62.6673V53.3333H57.3339Z" fill="#EEEEEE"/>
<path d="M35.1539 56.6667C36.6267 56.6667 37.8206 55.4728 37.8206 54C37.8206 52.5273 36.6267 51.3334 35.1539 51.3334C33.6812 51.3334 32.4873 52.5273 32.4873 54C32.4873 55.4728 33.6812 56.6667 35.1539 56.6667Z" fill="#FFC107"/>
<path d="M35.154 52C36.2606 52 37.1539 52.8933 37.1539 54C37.1539 55.1066 36.2606 56 35.154 56C34.0473 56 33.154 55.1066 33.154 54C33.154 52.8933 34.054 52 35.154 52ZM35.154 50.6666C33.314 50.6666 31.8206 52.16 31.8206 54C31.8206 55.84 33.314 57.3333 35.154 57.3333C36.9939 57.3333 38.4873 55.84 38.4873 54C38.4873 52.16 36.9939 50.6666 35.154 50.6666Z" fill="#C62828"/>
<path d="M64.6673 64H48.6673C47.9339 64 47.3339 63.4 47.3339 62.6666V60C47.3339 59.2666 47.9339 58.6666 48.6673 58.6666H64.6673C65.4006 58.6666 66.0006 59.2666 66.0006 60V62.6666C66.0006 63.4 65.4006 64 64.6673 64Z" fill="#795548"/>
<path opacity="0.2" d="M64.6673 60V62.6666H48.6673V60H64.6673ZM64.6673 58.6666H48.6673C47.9339 58.6666 47.3339 59.2666 47.3339 60V62.6666C47.3339 63.4 47.9339 64 48.6673 64H64.6673C65.4006 64 66.0006 63.4 66.0006 62.6666V60C66.0006 59.2666 65.4006 58.6666 64.6673 58.6666Z" fill="#424242"/>
<path d="M78.8539 32.7999L42.1339 0.799927C41.5429 0.284175 40.785 0 40.0006 0C39.2162 0 38.4583 0.284175 37.8673 0.799927L1.14729 32.7999C-0.226044 33.9999 -0.386044 36.0999 0.793956 37.4999C1.97396 38.8999 4.04062 39.0599 5.41396 37.8599L38.6873 8.86659C39.4406 8.21326 40.5606 8.21326 41.3139 8.86659L74.5873 37.8599C74.9131 38.1441 75.2924 38.3603 75.7028 38.4959C76.1133 38.6315 76.5468 38.6837 76.9777 38.6496C77.4087 38.6154 77.8285 38.4955 78.2125 38.297C78.5965 38.0984 78.937 37.8252 79.2139 37.4933C80.3873 36.1066 80.2273 33.9999 78.8539 32.7999Z" fill="url(#paint7_radial)"/>
<path d="M1.58063 79.3334C1.14063 79.3334 0.900628 78.8667 0.820628 78.6667C0.573961 78.0734 0.600628 77.2 1.12063 76.68C1.33396 76.4667 1.35396 76.1067 1.21396 75.8467C0.893961 75.28 0.760628 74.5734 0.833961 73.86C1.05396 71.6334 2.78729 69.7934 5.05396 69.38C5.36729 69.3267 5.68063 69.2934 5.99396 69.2934C6.40729 69.2934 6.82729 69.3467 7.23396 69.4467C7.37054 69.4807 7.51437 69.4706 7.64488 69.4179C7.7754 69.3652 7.88591 69.2726 7.96063 69.1534C8.92063 67.6134 10.5673 66.6934 12.374 66.6934C14.6673 66.6934 16.7206 68.2334 17.3606 70.4334C17.4473 70.72 17.7073 70.9134 18.0006 70.9134C18.0406 70.9134 18.0806 70.9067 18.1273 70.9C18.454 70.84 18.7806 70.8067 19.1006 70.8067C19.5073 70.8067 19.914 70.8534 20.314 70.9534C22.4806 71.48 24.114 73.3934 24.2873 75.5934C24.394 76.9734 23.9673 78.2867 23.094 79.3334H1.58063Z" fill="url(#paint8_radial)"/>
<path d="M12.3739 67.3534C14.3739 67.3534 16.1606 68.6934 16.7206 70.6134C16.8873 71.1934 17.4206 71.5734 18.0006 71.5734C18.0806 71.5734 18.1673 71.5667 18.2473 71.5467C18.5273 71.4934 18.8139 71.4667 19.0939 71.4667C19.4473 71.4667 19.8006 71.5067 20.1473 71.5934C22.0406 72.0534 23.4673 73.72 23.6139 75.64C23.7006 76.74 23.3939 77.7933 22.7606 78.66L1.61395 78.6667C1.56729 78.64 1.40729 78.4467 1.35395 78.0867C1.30729 77.7933 1.35395 77.3867 1.59395 77.14C1.92729 76.8134 2.17395 76.1867 1.79395 75.5067C1.54062 75.06 1.43395 74.4934 1.49395 73.9067C1.68062 72.0067 3.22729 70.3734 5.16728 70.02C5.44062 69.9734 5.71395 69.9467 5.98728 69.9467C6.34728 69.9467 6.71395 69.9934 7.06728 70.08C7.17395 70.1067 7.28062 70.12 7.38728 70.12C7.84062 70.12 8.27395 69.8867 8.52062 69.4934C9.35395 68.16 10.794 67.3534 12.3739 67.3534ZM12.3739 66.02C10.2673 66.02 8.42728 67.1267 7.39395 68.7934C6.94728 68.6867 6.48062 68.6267 5.99395 68.6267C5.64728 68.6267 5.29395 68.66 4.93395 68.72C2.42729 69.1734 0.420619 71.2534 0.167286 73.7867C0.0206194 75.2734 0.660619 76.1933 0.647286 76.2067C-0.599381 77.46 0.087286 80 1.58062 80H23.3873C23.9427 79.407 24.3682 78.7046 24.6369 77.9378C24.9055 77.171 25.0112 76.3567 24.9473 75.5467C24.7539 73.0334 22.9206 70.9067 20.4673 70.3067C20.02 70.1971 19.5612 70.1411 19.1006 70.14C18.7273 70.14 18.3606 70.18 18.0006 70.2467C17.2873 67.8067 15.0406 66.02 12.3739 66.02Z" fill="#689F38"/>
<path d="M6.60729 72.6199C6.60729 72.6199 6.55396 71.0132 7.84729 69.2932" stroke="#689F38" stroke-width="2" stroke-miterlimit="10" stroke-linecap="round" stroke-linejoin="round"/>
<path d="M17.9006 70.9133C16.3806 70.94 14.9006 72.1333 14.674 73.5867" stroke="#689F38" stroke-width="2" stroke-miterlimit="10" stroke-linecap="round" stroke-linejoin="round"/>
<path d="M16.3406 74.2598C15.0073 73.6532 13.2139 73.7465 11.8339 74.4532" stroke="#689F38" stroke-width="2" stroke-miterlimit="10" stroke-linecap="round" stroke-linejoin="round"/>
<path opacity="0.2" d="M40.0006 2C40.2139 2 40.5273 2.05333 40.8206 2.31333L77.5406 34.3133C78.0939 34.8 78.1606 35.6533 77.6806 36.22C77.3473 36.6133 76.9339 36.6733 76.7206 36.6733C76.5073 36.6733 76.1939 36.62 75.9006 36.36L42.6273 7.36C41.9006 6.72666 40.9673 6.37333 40.0006 6.37333C39.0339 6.37333 38.1006 6.72 37.3739 7.36L4.10062 36.3533C3.80729 36.6133 3.49396 36.6667 3.28062 36.6667C3.06729 36.6667 2.65396 36.6067 2.32062 36.2133C1.84062 35.6467 1.90729 34.7933 2.46062 34.3067L39.1806 2.30667C39.4739 2.05333 39.7873 2 40.0006 2ZM40.0006 0C39.2406 0 38.4806 0.266666 37.8673 0.8L1.14729 32.8C-0.226044 34 -0.386044 36.1 0.793956 37.5C1.09689 37.8656 1.47689 38.1598 1.90677 38.3615C2.33665 38.5632 2.80578 38.6674 3.28062 38.6667C4.03396 38.6667 4.79396 38.4 5.41396 37.8667L38.6873 8.86666C39.0511 8.54903 39.5176 8.3738 40.0006 8.37333C40.4836 8.3738 40.9501 8.54903 41.3139 8.86666L74.5873 37.86C74.9131 38.1441 75.2924 38.3603 75.7028 38.4959C76.1133 38.6315 76.5468 38.6838 76.9777 38.6496C77.4087 38.6155 77.8285 38.4956 78.2125 38.2971C78.5965 38.0985 78.937 37.8252 79.2139 37.4933C80.3939 36.0933 80.2339 33.9933 78.8606 32.7933L42.1339 0.8C41.5206 0.266666 40.7606 0 40.0006 0Z" fill="#424242"/>
<defs>
<radialGradient id="paint0_radial" cx="0" cy="0" r="1" gradientUnits="userSpaceOnUse" gradientTransform="translate(40.0006 2.90129) scale(82.7666)">
<stop stop-color="#FFD54F"/>
<stop offset="0.179" stop-color="#FFD34B"/>
<stop offset="0.353" stop-color="#FFCE3F"/>
<stop offset="0.524" stop-color="#FFC62C"/>
<stop offset="0.693" stop-color="#FFBA11"/>
<stop offset="0.778" stop-color="#FFB300"/>
<stop offset="1" stop-color="#FFB300"/>
</radialGradient>
<radialGradient id="paint1_radial" cx="0" cy="0" r="1" gradientUnits="userSpaceOnUse" gradientTransform="translate(27.5839 37.1667) scale(35.0013)">
<stop stop-color="#D32F2F"/>
<stop offset="0.437" stop-color="#CA2929"/>
<stop offset="0.996" stop-color="#B71C1C"/>
</radialGradient>
<radialGradient id="paint2_radial" cx="0" cy="0" r="1" gradientUnits="userSpaceOnUse" gradientTransform="translate(27.9173 38.9999) scale(31.4193)">
<stop stop-color="#EF5350"/>
<stop offset="1" stop-color="#E53935"/>
</radialGradient>
<radialGradient id="paint3_radial" cx="0" cy="0" r="1" gradientUnits="userSpaceOnUse" gradientTransform="translate(27.6673 41.8334) scale(27.7433)">
<stop stop-color="#E53935"/>
<stop offset="0.407" stop-color="#DC3431"/>
<stop offset="1" stop-color="#C62828"/>
</radialGradient>
<radialGradient id="paint4_radial" cx="0" cy="0" r="1" gradientUnits="userSpaceOnUse" gradientTransform="translate(27.6673 41.8334) scale(27.7433)">
<stop stop-color="#E53935"/>
<stop offset="0.407" stop-color="#DC3431"/>
<stop offset="1" stop-color="#C62828"/>
</radialGradient>
<linearGradient id="paint5_linear" x1="28.0166" y1="70.4465" x2="28.0166" y2="74.7999" gradientUnits="userSpaceOnUse">
<stop offset="0.004" stop-color="#BDBDBD"/>
<stop offset="0.215" stop-color="#B5B5B5"/>
<stop offset="0.55" stop-color="#9E9E9E"/>
<stop offset="0.965" stop-color="#787878"/>
<stop offset="1" stop-color="#757575"/>
</linearGradient>
<linearGradient id="paint6_linear" x1="28.0166" y1="73.6133" x2="28.0166" y2="77.9399" gradientUnits="userSpaceOnUse">
<stop offset="0.004" stop-color="#BDBDBD"/>
<stop offset="0.397" stop-color="#BABABA"/>
<stop offset="0.703" stop-color="#B0B0B0"/>
<stop offset="0.979" stop-color="#A0A0A0"/>
<stop offset="1" stop-color="#9E9E9E"/>
</linearGradient>
<radialGradient id="paint7_radial" cx="0" cy="0" r="1" gradientUnits="userSpaceOnUse" gradientTransform="translate(39.6673 -0.166742) scale(45.0927)">
<stop stop-color="#F44336"/>
<stop offset="0.34" stop-color="#EE3F35"/>
<stop offset="0.803" stop-color="#DC3531"/>
<stop offset="0.996" stop-color="#D32F2F"/>
</radialGradient>
<radialGradient id="paint8_radial" cx="0" cy="0" r="1" gradientUnits="userSpaceOnUse" gradientTransform="translate(12.0276 67.4234) rotate(90) scale(16.1987 18.818)">
<stop stop-color="#9CCC65"/>
<stop offset="0.254" stop-color="#96C760"/>
<stop offset="0.599" stop-color="#84B851"/>
<stop offset="0.995" stop-color="#689F38"/>
</radialGradient>
</defs>
</svg>
