<svg width="81" height="80" viewBox="0 0 81 80" fill="none" xmlns="http://www.w3.org/2000/svg">
<path d="M48.7452 47.5032L67.2433 52.6277H53.1197L33.7467 47.5032H48.7452Z" fill="#C94747"/>
<path d="M6.24937 27.5052H33.7466V75.0005H6.24937V27.5052Z" fill="#F9F3D9"/>
<path d="M33.7467 27.5052H48.7452V47.5033H33.7467V27.5052Z" fill="#DBB471"/>
<path d="M26.2474 10.007L1.37488 27.5052H33.7467L26.2474 10.007Z" fill="#ED4C5C"/>
<path d="M36.2464 12.5067H39.996V22.5057H36.2464V12.5067Z" fill="#D0D0D0"/>
<path d="M39.996 12.5067H42.4958V23.7556H39.996V12.5067Z" fill="#94989B"/>
<path d="M26.2474 10.007L53.7447 27.5052H33.7466L26.2474 10.007Z" fill="#C94747"/>
<path d="M34.9965 10.007H41.2459V12.5067H34.9965V10.007Z" fill="#D0D0D0"/>
<path d="M41.2459 10.007H43.7457V12.5067H41.2459V10.007Z" fill="#94989B"/>
<path d="M15.9984 34.7545H23.9976V42.7537H15.9984V34.7545Z" fill="#D6EEF0"/>
<path d="M14.9985 33.7546V43.7536H24.9975V33.7546H14.9985ZM23.9976 34.7545V38.2542H20.498V34.7545H23.9976ZM19.4981 34.7545V38.2542H15.9984V34.7545H19.4981ZM15.9984 42.7537V39.2541H19.4981V42.7537H15.9984ZM20.498 42.7537V39.2541H23.9976V42.7537H20.498Z" fill="#89664C"/>
<path d="M38.2462 34.2544H44.2456V43.2535H38.2462V34.2544Z" fill="#D6EEF0"/>
<path d="M37.7463 33.7546V43.7536H44.7456V33.7546H37.7463ZM38.7462 34.7545H40.746V38.2542H38.7462V34.7545ZM38.7462 42.7537V39.2541H40.746V42.7537H38.7462ZM43.7457 42.7537H41.7459V39.2541H43.7457V42.7537ZM43.7457 38.2542H41.7459V34.7545H43.7457V38.2542Z" fill="#89664C"/>
<path d="M17.1233 61.377H24.8726V75.0006H17.1233V61.377Z" fill="#89664C"/>
<path d="M23.9976 59.3771H25.9974V61.3769H23.9976V59.3771Z" fill="#89664C"/>
<path d="M15.1235 61.377H17.1233V75.0006H15.1235V61.377Z" fill="#594640"/>
<path d="M14.2486 59.3771H23.9976V61.3769H14.2486V59.3771Z" fill="#DBB471"/>
<path d="M23.2477 68.0011C23.6619 68.0011 23.9976 67.6653 23.9976 67.2511C23.9976 66.837 23.6619 66.5012 23.2477 66.5012C22.8335 66.5012 22.4978 66.837 22.4978 67.2511C22.4978 67.6653 22.8335 68.0011 23.2477 68.0011Z" fill="#F9F3D9"/>
<path d="M0.125 75.0005H65.1186V80H0.125V75.0005Z" fill="#83BF4F"/>
<path d="M49.87 52.6278H61.4939V75.0006H49.87V52.6278Z" fill="#DBB471"/>
<path d="M33.7467 52.6278H49.8701V75.0006H33.7467V52.6278Z" fill="#F9F3D9"/>
<path d="M33.7467 47.5032H6.24938L0 52.6277H53.1197L33.7467 47.5032Z" fill="#ED4C5C"/>
<path d="M35.3715 59.7521H43.3707V67.7513H35.3715V59.7521Z" fill="#D6EEF0"/>
<path d="M34.3716 58.7521V68.7511H44.3706V58.7521H34.3716ZM43.3707 59.752V63.2516H39.871V59.752H43.3707ZM38.8711 59.752V63.2516H35.3715V59.752H38.8711ZM35.3715 67.7512V64.2515H38.8711V67.7512H35.3715ZM39.871 67.7512V64.2515H43.3707V67.7512H39.871Z" fill="#89664C"/>
<path d="M52.6198 59.252H58.6192V68.2511H52.6198V59.252Z" fill="#D6EEF0"/>
<path d="M52.1198 58.7521V68.7511H59.1191V58.7521H52.1198ZM53.1197 59.752H55.1195V63.2516H53.1197V59.752ZM53.1197 67.7512V64.2515H55.1195V67.7512H53.1197ZM58.1192 67.7512H56.1194V64.2515H58.1192V67.7512ZM58.1192 63.2516H56.1194V59.752H58.1192V63.2516Z" fill="#89664C"/>
<path d="M64.8686 75.0005H79.8671V80H64.8686V75.0005Z" fill="#699635"/>
<path d="M65.2435 42.5037H70.243V75.0004H65.2435V42.5037Z" fill="#D3976E"/>
<path d="M70.243 42.5037H68.3682V43.1286C68.3682 46.0033 67.3683 46.0033 67.3683 48.878C67.3683 51.7527 68.3682 51.7527 68.3682 54.5025C68.3682 57.3772 67.3683 57.3772 67.3683 60.2519C67.3683 63.1266 68.3682 63.1266 68.3682 65.8763C68.3682 68.7511 67.3683 68.7511 67.3683 71.5008C67.3683 73.2506 67.6183 74.0005 67.8683 74.8755H70.118C70.243 75.0004 70.243 42.5037 70.243 42.5037Z" fill="#89664C"/>
<path d="M66.4934 3.63245C64.1186 7.00712 61.2439 0.882725 57.4943 6.1322C53.7447 11.3817 55.7445 16.0062 56.8694 19.3809C59.1191 26.2552 54.4946 28.38 57.6193 34.1294C60.619 39.8789 56.2444 42.6286 61.9938 45.7533C67.7433 48.878 64.8686 42.1286 70.743 46.1282C76.6174 50.1278 77.3673 43.3785 76.7424 40.8788C75.4925 36.2542 78.8672 35.1293 79.8671 31.2547C81.4919 24.3804 75.9925 20.6308 77.7423 14.1314C79.2421 7.75704 73.6177 -6.74152 66.4934 3.63245Z" fill="#83BF4F"/>
<path d="M77.4923 14.2565C78.8672 9.382 75.9924 0.00793457 71.4929 0.00793457C71.4929 0.00793457 74.4926 4.00754 70.243 9.00704C65.9934 14.0065 73.8677 16.5063 70.243 21.1308C66.6184 25.7554 73.6177 30.2549 70.868 33.8796C67.4933 38.3791 62.1188 37.7542 65.2435 46.3783V46.5033C66.4934 45.7534 66.6184 43.6286 70.493 46.2533C76.3674 50.253 77.1173 43.5036 76.4924 41.0039C75.2425 36.3793 78.6172 35.2544 79.6171 31.3798C81.3669 24.5055 75.8675 20.7559 77.4923 14.2565Z" fill="#699635"/>
<path d="M72.2428 14.0062C71.3679 14.0062 72.7428 13.2563 72.7428 12.2564C72.7428 11.2565 71.3679 10.5066 72.2428 10.5066C73.1177 10.5066 73.9927 11.2565 73.9927 12.2564C73.9927 13.2563 73.2427 14.0062 72.2428 14.0062Z" fill="#83BF4F"/>
<path d="M74.4926 29.1296C73.1177 29.1296 75.2425 28.0047 75.2425 26.6299C75.2425 25.255 73.1177 24.1301 74.4926 24.1301C75.8675 24.1301 76.9924 25.255 76.9924 26.6299C76.9924 28.0047 75.8675 29.1296 74.4926 29.1296Z" fill="#83BF4F"/>
<path d="M72.2428 41.8787C71.2429 41.8787 72.2428 41.0037 72.2428 40.0038C72.2428 39.0039 71.2429 38.129 72.2428 38.129C73.2427 38.129 74.1176 39.0039 74.1176 40.0038C74.1176 41.0037 73.2427 41.8787 72.2428 41.8787Z" fill="#83BF4F"/>
<path d="M61.6189 15.1311C62.6188 15.1311 61.3689 16.006 61.3689 17.0059C61.3689 18.0058 62.7438 18.8807 61.6189 18.8807C60.494 18.8807 59.7441 18.0058 59.7441 17.0059C59.7441 16.006 60.619 15.1311 61.6189 15.1311Z" fill="#83BF4F"/>
<path d="M65.7435 8.00684C67.1183 8.00684 65.1185 9.13172 65.1185 10.5066C65.1185 11.8815 67.2433 13.0063 65.7435 13.0063C64.3686 13.0063 63.2437 11.8815 63.2437 10.5066C63.2437 9.13172 64.2436 8.00684 65.7435 8.00684Z" fill="#83BF4F"/>
<path d="M64.6186 27.0054C66.7434 27.0054 63.7437 28.6302 63.7437 30.755C63.7437 32.8798 66.6184 34.5046 64.6186 34.5046C62.4938 34.5046 60.869 32.8798 60.869 30.755C60.869 28.6302 62.4938 27.0054 64.6186 27.0054Z" fill="#699635"/>
<path d="M65.7435 20.1311C66.7434 20.1311 65.7435 21.006 65.7435 22.0059C65.7435 23.0058 66.7434 23.8807 65.7435 23.8807C64.7436 23.8807 63.8687 23.0058 63.8687 22.0059C63.8687 21.006 64.7436 20.1311 65.7435 20.1311Z" fill="#699635"/>
<path d="M72.6178 71.2509H73.1178V75.0005H72.6178V71.2509Z" fill="#83BF4F"/>
<path d="M71.4929 67.3761V70.2508C71.4929 70.7508 71.8679 71.2507 72.4928 71.2507H73.4927V69.2509C73.3677 67.876 71.4929 67.3761 71.4929 67.3761Z" fill="#C94747"/>
<path d="M74.3676 67.3761V70.2508C74.3676 70.7508 73.9927 71.2507 73.3677 71.2507H72.3678V69.2509C72.3678 67.876 74.3676 67.3761 74.3676 67.3761Z" fill="#ED4C5C"/>
<path d="M78.1172 68.3761H78.6172V75.0004H78.1172V68.3761Z" fill="#83BF4F"/>
<path d="M76.9924 64.3766V67.2513C76.9924 67.7513 77.3673 68.2512 77.9923 68.2512H78.9922V66.2514C78.8672 65.0015 76.9924 64.3766 76.9924 64.3766Z" fill="#C94747"/>
<path d="M79.8671 64.3766V67.2513C79.8671 67.7513 79.4921 68.2512 78.8672 68.2512H77.8673V66.2514C77.8673 65.0015 79.8671 64.3766 79.8671 64.3766Z" fill="#ED4C5C"/>
<path d="M73.3677 62.7517V65.6264C73.3677 66.1264 73.7427 66.6263 74.3676 66.6263H75.3675V64.6265C75.3675 63.3766 73.3677 62.7517 73.3677 62.7517Z" fill="#F2B200"/>
<path d="M76.3674 62.7517V65.6264C76.3674 66.1264 75.9925 66.6263 75.3675 66.6263H74.3676V64.6265C74.3676 63.3766 76.3674 62.7517 76.3674 62.7517Z" fill="#FFCE31"/>
<path d="M74.6176 66.7512H75.1176V75.0004H74.6176V66.7512Z" fill="#83BF4F"/>
<path d="M69.3681 64.2515V67.1262C69.3681 67.6261 69.8681 68.1261 70.368 68.1261H71.2429V66.2513C71.2429 64.7514 69.3681 64.2515 69.3681 64.2515Z" fill="#F2B200"/>
<path d="M72.2428 64.2515V67.1262C72.2428 67.6261 71.8679 68.1261 71.2429 68.1261H70.243V66.2513C70.243 64.7514 72.2428 64.2515 72.2428 64.2515Z" fill="#FFCE31"/>
<path d="M70.493 68.1262H70.9929V75.0005H70.493V68.1262Z" fill="#83BF4F"/>
<path d="M61.2439 71.2509H61.7439V75.0005H61.2439V71.2509Z" fill="#83BF4F"/>
<path d="M59.994 67.3761V70.2508C59.994 70.7508 60.369 71.2507 60.9939 71.2507H61.9938V69.2509C61.9938 67.876 59.994 67.3761 59.994 67.3761Z" fill="#C94747"/>
<path d="M62.9937 67.3761V70.2508C62.9937 70.7508 62.6188 71.2507 61.9938 71.2507H60.9939V69.2509C60.9939 67.876 62.9937 67.3761 62.9937 67.3761Z" fill="#ED4C5C"/>
<path d="M66.7434 68.3761H67.2433V75.0004H66.7434V68.3761Z" fill="#83BF4F"/>
<path d="M65.4935 64.3766V67.2513C65.4935 67.7513 65.8685 68.2512 66.4934 68.2512H67.4933V66.2514C67.4933 65.0015 65.4935 64.3766 65.4935 64.3766Z" fill="#C94747"/>
<path d="M68.4932 64.3766V67.2513C68.4932 67.7513 68.1183 68.2512 67.4933 68.2512H66.4934V66.2514C66.4934 65.0015 68.4932 64.3766 68.4932 64.3766Z" fill="#ED4C5C"/>
<path d="M61.9939 62.7517V65.6264C61.9939 66.1264 62.3688 66.6263 62.9938 66.6263H63.9937V64.6265C63.9937 63.3766 61.9939 62.7517 61.9939 62.7517Z" fill="#F2B200"/>
<path d="M64.8685 62.7517V65.6264C64.8685 66.1264 64.4936 66.6263 63.8686 66.6263H62.8687V64.6265C62.9937 63.3766 64.8685 62.7517 64.8685 62.7517Z" fill="#FFCE31"/>
<path d="M63.2437 66.7512H63.7437V75.0004H63.2437V66.7512Z" fill="#83BF4F"/>
<path d="M57.8692 64.2515V67.1262C57.8692 67.6261 58.2442 68.1261 58.8691 68.1261H59.8691V66.2513C59.8691 64.7514 57.8692 64.2515 57.8692 64.2515Z" fill="#C94747"/>
<path d="M60.869 64.2515V67.1262C60.869 67.6261 60.494 68.1261 59.8691 68.1261H58.8692V66.2513C58.8692 64.7514 60.869 64.2515 60.869 64.2515Z" fill="#ED4C5C"/>
<path d="M59.1191 68.1262H59.6191V75.0005H59.1191V68.1262Z" fill="#83BF4F"/>
</svg>
