<svg width="339" height="600" viewBox="0 0 339 600" fill="none" xmlns="http://www.w3.org/2000/svg">
<path d="M338.028 38.4977C338.028 19.7183 318.31 0 297.653 0H40.3756C19.7183 0 0 19.7183 0 38.4977V561.502C0 581.221 19.7183 600 40.3756 600H298.592C318.31 600 338.967 580.282 338.967 561.502V38.4977H338.028Z" fill="#5C6D6D"/>
<path d="M328.638 553.99C328.638 572.77 309.859 591.549 291.08 591.549H46.9483C28.169 591.549 9.38965 572.77 9.38965 553.99V46.9481C9.38965 28.1687 28.169 9.3894 46.9483 9.3894H291.08C309.859 9.3894 328.638 28.1687 328.638 46.9481V553.99Z" fill="#212528"/>
<path d="M276.995 51.6436C282.181 51.6436 286.385 47.4397 286.385 42.2539C286.385 37.0682 282.181 32.8643 276.995 32.8643C271.809 32.8643 267.606 37.0682 267.606 42.2539C267.606 47.4397 271.809 51.6436 276.995 51.6436Z" fill="#94989B"/>
<path d="M197.183 42.2537C197.183 45.0706 196.244 46.9485 194.366 46.9485H143.662C141.784 46.9485 140.845 45.0706 140.845 42.2537C140.845 40.3757 141.784 37.5588 143.662 37.5588H194.366C196.244 37.5588 197.183 40.3757 197.183 42.2537Z" fill="#94989B"/>
<path d="M28.169 75.1172H309.859V525.821H28.169V75.1172Z" fill="#3E4347"/>
<path d="M204.695 565.262C204.695 569.018 201.878 572.773 197.183 572.773H140.845C137.089 572.773 133.333 569.957 133.333 565.262V551.177C133.333 547.421 136.15 543.666 140.845 543.666H197.183C200.939 543.666 204.695 546.482 204.695 551.177V565.262Z" fill="#94989B"/>
<path d="M93.8967 138.025C93.8967 142.719 90.1409 145.536 86.385 145.536H55.3991C50.7042 145.536 47.8873 141.78 47.8873 138.025V107.039C47.8873 102.344 51.6432 99.5269 55.3991 99.5269H86.385C91.0798 99.5269 93.8967 103.283 93.8967 107.039V138.025Z" fill="#42ADE2"/>
<path d="M159.624 138.025C159.624 142.719 155.869 145.536 152.113 145.536H121.127C116.432 145.536 113.615 141.78 113.615 138.025V107.039C113.615 102.344 117.371 99.5269 121.127 99.5269H152.113C156.807 99.5269 159.624 103.283 159.624 107.039V138.025Z" fill="#C7E755"/>
<path d="M225.352 138.025C225.352 142.719 221.596 145.536 217.84 145.536H186.854C182.16 145.536 179.343 141.78 179.343 138.025V107.039C179.343 102.344 183.099 99.5269 186.854 99.5269H217.84C222.535 99.5269 225.352 103.283 225.352 107.039V138.025Z" fill="#F2B200"/>
<path d="M291.08 138.025C291.08 142.719 287.324 145.536 283.568 145.536H252.582C247.887 145.536 245.07 141.78 245.07 138.025V107.039C245.07 102.344 248.826 99.5269 252.582 99.5269H283.568C288.263 99.5269 291.08 103.283 291.08 107.039V138.025Z" fill="#42ADE2"/>
<path d="M93.8967 499.527C93.8967 504.222 90.1409 507.039 86.385 507.039H55.3991C50.7042 507.039 47.8873 503.283 47.8873 499.527V468.541C47.8873 463.846 51.6432 461.029 55.3991 461.029H86.385C91.0798 461.029 93.8967 464.785 93.8967 468.541V499.527Z" fill="#C7E755"/>
<path d="M159.624 499.527C159.624 504.222 155.869 507.039 152.113 507.039H121.127C116.432 507.039 113.615 503.283 113.615 499.527V468.541C113.615 463.846 117.371 461.029 121.127 461.029H152.113C156.807 461.029 159.624 464.785 159.624 468.541V499.527Z" fill="#FF435E"/>
<path d="M225.352 499.527C225.352 504.222 221.596 507.039 217.84 507.039H186.854C182.16 507.039 179.343 503.283 179.343 499.527V468.541C179.343 463.846 183.099 461.029 186.854 461.029H217.84C222.535 461.029 225.352 464.785 225.352 468.541V499.527Z" fill="#42ADE2"/>
<path d="M291.08 499.527C291.08 504.222 287.324 507.039 283.568 507.039H252.582C247.887 507.039 245.07 503.283 245.07 499.527V468.541C245.07 463.846 248.826 461.029 252.582 461.029H283.568C288.263 461.029 291.08 464.785 291.08 468.541V499.527Z" fill="#C28FEF"/>
<path d="M93.8967 318.308C93.8967 323.003 90.1409 325.819 86.385 325.819H55.3991C50.7042 325.819 47.8873 322.064 47.8873 318.308V287.322C47.8873 282.627 51.6432 279.81 55.3991 279.81H86.385C91.0798 279.81 93.8967 283.566 93.8967 287.322V318.308Z" fill="#C7E755"/>
<path d="M159.624 318.308C159.624 323.003 155.869 325.819 152.113 325.819H121.127C116.432 325.819 113.615 322.064 113.615 318.308V287.322C113.615 282.627 117.371 279.81 121.127 279.81H152.113C156.807 279.81 159.624 283.566 159.624 287.322V318.308Z" fill="#C28FEF"/>
<path d="M225.352 318.308C225.352 323.003 221.596 325.819 217.84 325.819H186.854C182.16 325.819 179.343 322.064 179.343 318.308V287.322C179.343 282.627 183.099 279.81 186.854 279.81H217.84C222.535 279.81 225.352 283.566 225.352 287.322V318.308Z" fill="#42ADE2"/>
<path d="M93.8967 258.22C93.8967 262.914 90.1409 265.731 86.385 265.731H55.3991C50.7042 265.731 47.8873 261.975 47.8873 258.22V227.234C47.8873 222.539 51.6432 219.722 55.3991 219.722H86.385C91.0798 219.722 93.8967 223.478 93.8967 227.234V258.22Z" fill="#FF435E"/>
<path d="M159.624 258.22C159.624 262.914 155.869 265.731 152.113 265.731H121.127C116.432 265.731 113.615 261.975 113.615 258.22V227.234C113.615 222.539 117.371 219.722 121.127 219.722H152.113C156.807 219.722 159.624 223.478 159.624 227.234V258.22Z" fill="#F2B200"/>
<path d="M225.352 258.22C225.352 262.914 221.596 265.731 217.84 265.731H186.854C182.16 265.731 179.343 261.975 179.343 258.22V227.234C179.343 222.539 183.099 219.722 186.854 219.722H217.84C222.535 219.722 225.352 223.478 225.352 227.234V258.22Z" fill="#C7E755"/>
<path d="M291.08 258.22C291.08 262.914 287.324 265.731 283.568 265.731H252.582C247.887 265.731 245.07 261.975 245.07 258.22V227.234C245.07 222.539 248.826 219.722 252.582 219.722H283.568C288.263 219.722 291.08 223.478 291.08 227.234V258.22Z" fill="#F2B200"/>
<path d="M93.8967 198.122C93.8967 202.817 90.1409 205.633 86.385 205.633H55.3991C50.7042 205.633 47.8873 201.878 47.8873 198.122V167.136C47.8873 162.441 51.6432 159.624 55.3991 159.624H86.385C91.0798 159.624 93.8967 163.38 93.8967 167.136V198.122Z" fill="#C28FEF"/>
<path d="M159.624 198.122C159.624 202.817 155.869 205.633 152.113 205.633H121.127C116.432 205.633 113.615 201.878 113.615 198.122V167.136C113.615 162.441 117.371 159.624 121.127 159.624H152.113C156.807 159.624 159.624 163.38 159.624 167.136V198.122Z" fill="#42ADE2"/>
<path d="M225.352 198.122C225.352 202.817 221.596 205.633 217.84 205.633H186.854C182.16 205.633 179.343 201.878 179.343 198.122V167.136C179.343 162.441 183.099 159.624 186.854 159.624H217.84C222.535 159.624 225.352 163.38 225.352 167.136V198.122Z" fill="#FF435E"/>
<path d="M291.08 198.122C291.08 202.817 287.324 205.633 283.568 205.633H252.582C247.887 205.633 245.07 201.878 245.07 198.122V167.136C245.07 162.441 248.826 159.624 252.582 159.624H283.568C288.263 159.624 291.08 163.38 291.08 167.136V198.122Z" fill="#C28FEF"/>
</svg>
