<svg width="23" height="25" viewBox="0 0 23 25" fill="none" xmlns="http://www.w3.org/2000/svg">
<path d="M0 1.47325V22.5318C0.000141081 22.5775 0.0137678 22.6221 0.0391715 22.6601C0.0645752 22.698 0.100625 22.7277 0.1428 22.7452C0.184976 22.7628 0.231399 22.7675 0.27625 22.7588C0.3211 22.7501 0.36238 22.7284 0.394915 22.6963L11.3598 12.0031L0.394915 1.30874C0.36238 1.27667 0.3211 1.25491 0.27625 1.2462C0.231399 1.23749 0.184976 1.24221 0.1428 1.25978C0.100625 1.27735 0.0645752 1.30698 0.0391715 1.34495C0.0137678 1.38293 0.000141081 1.42756 0 1.47325Z" fill="white"/>
<path d="M15.9573 7.6091L2.20871 0.0344536L2.20013 0.029631C1.96329 -0.0989708 1.73824 0.221462 1.93221 0.407935L12.7096 10.7132L15.9573 7.6091Z" fill="white"/>
<path d="M1.93333 23.5981C1.73828 23.7846 1.96334 24.105 2.20125 23.9764L2.20982 23.9716L15.9574 16.3969L12.7096 13.2917L1.93333 23.5981Z" fill="white"/>
<path d="M21.5076 10.6635L17.6683 8.54907L14.0583 12.0031L17.6683 15.4555L21.5076 13.3427C22.5519 12.7656 22.5519 11.2406 21.5076 10.6635Z" fill="white"/>
</svg>
